<?xml version="1.0" encoding="utf-8"?>
<svg width="146.224px" height="230px" viewBox="0 0 146.224 230" version="1.1" xmlns:xlink="http://www.w3.org/1999/xlink" xmlns="http://www.w3.org/2000/svg">
  <g id="building2">
    <path d="M92 0L135 0L135 24L92 24L92 0L92 0Z" id="Path#89" fill="#136FFB" stroke="none" />
    <path d="M9 0L92 0L92 24L9 24L9 0L9 0Z" id="Path#90" fill="#C1E8FA" stroke="none" />
    <path d="M0 23L95 23L95 230L0 230L0 23L0 23Z" id="Path#91" fill="#136FFB" stroke="none" />
    <path d="M92.2244 23L146.224 23L146.224 230L92.2244 230L92.2244 23L92.2244 23Z" id="Shape#35" fill="#0C4499" fill-rule="evenodd" stroke="none" />
    <path d="M0 122L92 122L92 126L0 126L0 122L0 122Z" id="Path#92" fill="#0C4499" stroke="none" />
    <path d="M0 155L92 155L92 159L0 159L0 155L0 155Z" id="Path#93" fill="#0C4499" stroke="none" />
    <path d="M0 189L92 189L92 193L0 193L0 189L0 189Z" id="Path#94" fill="#0C4499" stroke="none" />
    <path d="M0 53L92 53L92 57L0 57L0 53L0 53Z" id="Path#95" fill="#0C4499" stroke="none" />
    <path d="M0 87L92 87L92 91L0 91L0 87L0 87Z" id="Path#96" fill="#0C4499" stroke="none" />
    <path d="M4 93L88 93L88 121L4 121L4 93L4 93ZM4 128L88 128L88 153L4 153L4 128L4 128ZM4 161L88 161L88 186L4 186L4 161L4 161Z" id="Shape#36" fill="#C1E8FA" fill-rule="evenodd" stroke="none" />
    <path d="M3 28L87 28L87 53L3 53L3 28L3 28ZM3 61L87 61L87 86L3 86L3 61L3 61Z" id="Shape#37" fill="#C1E8FA" fill-rule="evenodd" stroke="none" />
    <path d="M5 195L87 195L87 230L5 230L5 195L5 195Z" id="Path#97" fill="#C1E8FA" stroke="none" />
    <path d="M97 161L141 161L141 186L97 186L97 161L97 161ZM97 128L141 128L141 153L97 153L97 128L97 128ZM97 93L142 93L142 121L97 121L97 93L97 93Z" id="Shape#38" fill="#136FFB" fill-rule="evenodd" stroke="none" />
    <path d="M97 61L141 61L141 86L97 86L97 61L97 61ZM97 28L141 28L141 53L97 53L97 28L97 28Z" id="Shape#39" fill="#136FFB" fill-rule="evenodd" stroke="none" />
    <path d="M60 26L63 26L63 188L60 188L60 26L60 26Z" id="Path#98" fill="#136FFB" stroke="none" />
    <path d="M28 26L32 26L32 188L28 188L28 26L28 26Z" id="Path#99" fill="#136FFB" stroke="none" />
    <path d="M31 230L31 210L61 210L61 230" id="Path#100" fill="#FFFFFF" stroke="none" />
    <path d="M63 230L59 230L59 211L32 211L32 230L29 230L29 208L63 208L63 230L63 230Z" id="Path#101" fill="#136FFB" stroke="none" />
  </g>
</svg>